<?xml version="1.0" encoding="iso-8859-1"?>
<!-- Generator: Adobe Illustrator 19.0.0, SVG Export Plug-In . SVG Version: 6.00 Build 0)  -->
<svg version="1.1" id="Capa_1" xmlns="http://www.w3.org/2000/svg" xmlns:xlink="http://www.w3.org/1999/xlink" x="0px"
	y="0px" viewBox="0 0 512 512" style="enable-background:new 0 0 512 512;" xml:space="preserve">
	<g transform="translate(0.000000,512.000000) scale(0.100000,-0.100000)" fill="#15A801" stroke="none">
		<path d="M2460 4780 c-967 -65 -1783 -746 -2021 -1685 -250 -991 203 -2025
1103 -2516 328 -179 684 -269 1066 -269 352 0 663 71 977 224 453 221 811 575
1029 1019 163 332 230 619 230 992 0 208 -13 335 -55 515 -55 234 -180 524
-313 723 -449 672 -1213 1050 -2016 997z m-930 -1843 c0 -418 2 -490 16 -531
20 -58 100 -147 157 -175 171 -83 365 -14 446 158 l26 56 3 488 3 487 168 0
168 0 48 -127 c56 -150 135 -324 203 -448 97 -176 96 -175 106 -124 10 53 81
191 131 257 122 161 308 252 515 252 296 0 553 -189 647 -475 33 -100 37 -252
9 -353 -66 -245 -241 -432 -473 -510 -69 -23 -94 -26 -213 -26 -117 1 -147 4
-223 28 -48 14 -120 42 -158 62 -39 19 -72 34 -74 32 -2 -2 -35 -154 -74 -338
-39 -184 -73 -345 -76 -357 -5 -23 -7 -23 -181 -23 l-176 0 6 28 c3 15 51 233
106 485 55 253 100 465 100 473 0 8 -22 48 -50 89 -27 40 -81 129 -120 197
l-70 123 0 -110 c0 -139 -19 -229 -69 -330 -172 -345 -575 -472 -911 -288 -93
52 -205 168 -257 268 -77 150 -76 138 -80 708 l-4 507 175 0 176 0 0 -483z" />
		<path d="M3415 2887 c-66 -22 -99 -43 -142 -90 -68 -73 -88 -125 -138 -351
l-18 -79 34 -28 c55 -46 172 -99 255 -116 128 -26 241 6 327 91 85 85 129 210
108 308 -34 155 -160 263 -318 274 -42 2 -84 -1 -108 -9z" />
	</g>
	<g>
	</g>
	<g>
	</g>
	<g>
	</g>
	<g>
	</g>
	<g>
	</g>
	<g>
	</g>
	<g>
	</g>
	<g>
	</g>
	<g>
	</g>
	<g>
	</g>
	<g>
	</g>
	<g>
	</g>
	<g>
	</g>
	<g>
	</g>
	<g>
	</g>
</svg>